<svg xmlns="http://www.w3.org/2000/svg" width="503" height="141" viewBox="0 0 503 141"><g fill="none" fill-rule="evenodd"><path fill="#1A1919" d="M86.43 114.088c16.33-7.488 32.118-23.999 32.118-54.131C118.548-.13 59.545-.852 52.057.502c17.502 6.676 30.494 27.246 30.494 59.455 0 32.118-13.804 55.034-30.043 60.176 1.173.812 22.013 31.757 61.078 16.78-17.141-7.037-23.727-15.788-27.156-22.825"/><path fill="#8A8B8A" d="M44.388 21.252c-7.127 6.135-13.623 21.112-13.623 39.156 0 17.863 6.496 33.02 13.623 39.155C31.126 114.359 0 98.209 0 60.137 0 19.809 31.036 6.456 44.388 21.252"/><path fill="#1A1919" d="M147.732 25.385c0-1.925 1.21-3.189 3.024-3.189h20.623c1.76 0 2.64.88 2.64 2.364v.33c0 1.54-.88 2.365-2.64 2.365h-17.983v9.953h13.914c1.814 0 2.64.77 2.64 2.255v.165c0 1.54-.88 2.365-2.64 2.365h-13.914v10.778h18.313c1.76 0 2.584.77 2.584 2.255v.275c0 1.595-.824 2.475-2.584 2.475h-20.953c-1.814 0-3.024-1.21-3.024-3.135V25.385m34.484-.275c0-1.924 1.265-3.134 3.245-3.134h1.485c2.2 0 2.804.824 3.684 2.859l8.414 18.973 8.469-18.973c.88-2.089 1.54-2.859 3.63-2.859h1.374c2.035 0 3.356 1.21 3.356 3.134v30.301c0 1.705-.716 2.585-2.366 2.585h-.769c-1.595 0-2.255-.88-2.255-2.585V29.29l-7.864 17.708c-.605 1.429-1.21 2.419-3.629 2.419-2.475 0-2.97-.99-3.63-2.419l-7.754-17.544v25.957c0 1.705-.66 2.585-2.31 2.585h-.88c-1.54 0-2.2-.88-2.2-2.585V25.11m56.428 14.298c5.225 0 7.699-2.419 7.699-6.269 0-4.124-2.639-6.269-7.864-6.269h-7.313v12.538h7.478zm-13.033-14.023c0-1.925 1.21-3.189 3.024-3.189h10.119c8.689 0 13.309 3.629 13.309 10.668 0 6.049-3.74 9.899-10.614 10.449l10.393 12.373c.276.33-.934 2.31-3.299 2.31-1.485 0-2.474-.605-3.684-2.2l-9.735-11.933h-3.904v11.548c0 1.54-.825 2.585-2.474 2.585h-.77c-1.54 0-2.365-1.045-2.365-2.915V25.385zm-78.208 76.089c0-1.649.55-2.475 2.364-4.728l18.643-22.713h-18.313c-1.649 0-2.529-.715-2.529-2.309v-.33c0-1.541.88-2.31 2.529-2.31h21.502c2.64 0 3.63 1.209 3.63 2.64v.494c0 1.65-.88 2.86-2.31 4.565l-18.807 22.931h19.412c1.65 0 2.53.715 2.53 2.311v.33c0 1.539-.88 2.308-2.53 2.308h-22.437c-2.639 0-3.684-1.263-3.684-2.694v-.495m37.399-29.201c0-1.924 1.21-3.189 3.025-3.189h20.622c1.759 0 2.639.88 2.639 2.364v.33c0 1.54-.88 2.365-2.639 2.365h-17.983v9.954h13.913c1.815 0 2.64.77 2.64 2.254v.166c0 1.539-.88 2.364-2.64 2.364h-13.913V99.66h18.313c1.76 0 2.585.769 2.585 2.254v.275c0 1.596-.825 2.474-2.585 2.474h-20.952c-1.815 0-3.025-1.208-3.025-3.134V72.273m47.792 14.023c5.225 0 7.699-2.42 7.699-6.269 0-4.124-2.639-6.269-7.864-6.269h-7.313v12.538h7.478zm-13.033-14.023c0-1.924 1.21-3.189 3.024-3.189h10.12c8.688 0 13.308 3.629 13.308 10.668 0 6.05-3.74 9.899-10.614 10.449l10.393 12.373c.276.33-.934 2.31-3.298 2.31-1.486 0-2.475-.605-3.685-2.199l-9.734-11.934h-3.905v11.548c0 1.54-.825 2.585-2.474 2.585h-.77c-1.54 0-2.365-1.045-2.365-2.915V72.273zm42.459 1.87h-9.734c-1.704 0-2.64-.88-2.64-2.419v-.276c0-1.539.936-2.364 2.64-2.364h25.187c1.704 0 2.584.825 2.584 2.364v.276c0 1.539-.88 2.419-2.584 2.419h-9.734v28.156c0 1.704-.88 2.585-2.53 2.585h-.769c-1.596 0-2.42-.881-2.42-2.585V74.143m25.08-2.695c0-1.704.825-2.584 2.42-2.584h.77c1.65 0 2.474.88 2.474 2.584v30.851c0 1.704-.824 2.585-2.474 2.585h-.77c-1.595 0-2.42-.881-2.42-2.585V71.448m18.425.825c0-1.924 1.21-3.189 3.024-3.189h19.193c1.759 0 2.639.825 2.639 2.31v.33c0 1.539-.88 2.364-2.639 2.364h-16.608v11.328h12.319c1.814 0 2.639.826 2.639 2.255v.22c0 1.54-.88 2.31-2.639 2.31h-12.209v12.098c0 1.704-.825 2.585-2.475 2.585h-.88c-1.54 0-2.364-1.045-2.364-2.97V72.273m32.009-.825c0-1.704.825-2.584 2.42-2.584h.77c1.65 0 2.475.88 2.475 2.584v30.851c0 1.704-.825 2.585-2.475 2.585h-.77c-1.595 0-2.42-.881-2.42-2.585V71.448m14.245 30.026c0-1.649.55-2.475 2.364-4.728l18.643-22.713h-18.313c-1.649 0-2.529-.715-2.529-2.309v-.33c0-1.541.88-2.31 2.529-2.31h21.503c2.639 0 3.629 1.209 3.629 2.64v.494c0 1.65-.88 2.86-2.31 4.565l-18.807 22.931H377.9c1.65 0 2.53.715 2.53 2.311v.33c0 1.539-.88 2.308-2.53 2.308h-22.437c-2.639 0-3.684-1.263-3.684-2.694v-.495m37.619-30.026c0-1.704.825-2.584 2.42-2.584h.769c1.651 0 2.476.88 2.476 2.584v30.851c0 1.704-.825 2.585-2.476 2.585h-.769c-1.595 0-2.42-.881-2.42-2.585V71.448m17.325.825c0-1.924 1.209-3.189 3.025-3.189h20.622c1.759 0 2.639.88 2.639 2.364v.33c0 1.54-.88 2.365-2.639 2.365h-17.983v9.954H426.3c1.815 0 2.64.77 2.64 2.254v.166c0 1.539-.88 2.364-2.64 2.364h-13.913V99.66H430.7c1.759 0 2.585.769 2.585 2.254v.275c0 1.596-.826 2.474-2.585 2.474h-20.952c-1.816 0-3.025-1.208-3.025-3.134V72.273m48.067 14.023c5.224 0 7.699-2.42 7.699-6.269 0-4.124-2.64-6.269-7.864-6.269h-7.314v12.538h7.479zm-13.033-14.023c0-1.924 1.209-3.189 3.025-3.189H454.9c8.689 0 13.308 3.629 13.308 10.668 0 6.05-3.739 9.899-10.613 10.449l10.394 12.373c.274.33-.936 2.31-3.3 2.31-1.485 0-2.475-.605-3.685-2.199l-9.733-11.934h-3.905v11.548c0 1.54-.825 2.585-2.475 2.585h-.769c-1.54 0-2.365-1.045-2.365-2.915V72.273zm42.734 1.87h-9.735c-1.704 0-2.639-.88-2.639-2.419v-.276c0-1.539.935-2.364 2.639-2.364h25.187c1.705 0 2.585.825 2.585 2.364v.276c0 1.539-.88 2.419-2.585 2.419h-9.734v28.156c0 1.704-.879 2.585-2.529 2.585h-.77c-1.595 0-2.419-.881-2.419-2.585V74.143"/></g></svg>