<svg id="Ebene_1" data-name="Ebene 1" xmlns="http://www.w3.org/2000/svg" viewBox="0 0 595.28 45.28"><path d="M263.37,79.33c-5.85-1.32-10-4.9-10-11.41,0-7.16,6.15-11.22,12.3-11.22,7.05,0,12.24,5.07,12.24,11.22v.78a1.19,1.19,0,0,1-1.19,1.19h-3.29a1.2,1.2,0,0,1-1.19-1.19v-.78c0-4-3.52-5.55-6.57-5.55-3.88,0-6.57,2.15-6.57,5.55,0,5.26,5.08,5.79,9,6.75,6.81,1.67,11.05,5.49,11.05,12.36,0,7.64-6.51,12.42-13.44,12.42-7.7,0-13.43-5.61-13.43-12.42v-1a1.19,1.19,0,0,1,1.19-1.19h3.35A1.2,1.2,0,0,1,258,86.07v1c0,3.88,3.22,6.74,7.7,6.74s7.7-2.92,7.7-6.74c0-5.55-4-6.33-10-7.7" transform="translate(-56.69 -56.7)"/><path d="M179.47,79.33c-5.85-1.32-10-4.9-10-11.41,0-7.16,6.15-11.22,12.3-11.22,7,0,12.24,5.07,12.24,11.22v.78a1.2,1.2,0,0,1-1.2,1.19h-3.28a1.2,1.2,0,0,1-1.2-1.19v-.78c0-4-3.52-5.55-6.56-5.55-3.88,0-6.57,2.15-6.57,5.55,0,5.26,5.07,5.79,9,6.75,6.8,1.67,11,5.49,11,12.36,0,7.64-6.51,12.42-13.43,12.42-7.71,0-13.44-5.61-13.44-12.42v-1a1.2,1.2,0,0,1,1.2-1.19h3.34a1.19,1.19,0,0,1,1.19,1.19v1c0,3.88,3.23,6.74,7.71,6.74s7.7-2.92,7.7-6.74c0-5.55-4-6.33-10-7.7" transform="translate(-56.69 -56.7)"/><path d="M295.82,79.33c-5.85-1.32-10-4.9-10-11.41,0-7.16,6.15-11.22,12.3-11.22,7.05,0,12.24,5.07,12.24,11.22v.78a1.2,1.2,0,0,1-1.19,1.19h-3.29a1.2,1.2,0,0,1-1.19-1.19v-.78c0-4-3.52-5.55-6.57-5.55-3.88,0-6.57,2.15-6.57,5.55,0,5.26,5.08,5.79,9,6.75,6.81,1.67,11,5.49,11,12.36,0,7.64-6.51,12.42-13.44,12.42-7.7,0-13.43-5.61-13.43-12.42v-1a1.19,1.19,0,0,1,1.19-1.19h3.34a1.2,1.2,0,0,1,1.2,1.19v1c0,3.88,3.22,6.74,7.7,6.74s7.7-2.92,7.7-6.74c0-5.55-4-6.33-10-7.7" transform="translate(-56.69 -56.7)"/><path d="M229.13,87c0,7.16-6.21,12.42-13.43,12.42-7.71,0-13.44-5.26-13.44-12.42V58.37a1.2,1.2,0,0,1,1.19-1.2h3.29a1.19,1.19,0,0,1,1.19,1.2V87c0,4.77,3.88,6.74,7.77,6.74,4.53,0,7.76-2.92,7.76-6.74V58.37a1.19,1.19,0,0,1,1.19-1.2h3.29a1.2,1.2,0,0,1,1.19,1.2Z" transform="translate(-56.69 -56.7)"/><rect x="181.99" y="0.48" width="6.1" height="41.8" rx="1.19"/><path d="M324,92.7a.56.56,0,0,0,.59.6H339a1.2,1.2,0,0,1,1.2,1.19v3.29A1.2,1.2,0,0,1,339,99h-19.4a1.2,1.2,0,0,1-1.2-1.19V58.37a1.2,1.2,0,0,1,1.2-1.2h19.28a1.2,1.2,0,0,1,1.2,1.2v3.28a1.2,1.2,0,0,1-1.2,1.2H324.63a.56.56,0,0,0-.59.59V74.19a.56.56,0,0,0,.59.6h13.56A1.19,1.19,0,0,1,339.38,76v3.29a1.2,1.2,0,0,1-1.19,1.19H324.63a.56.56,0,0,0-.59.6Z" transform="translate(-56.69 -56.7)"/><path d="M62.84,82.55c-.12-.18-.47-.18-.47.12V97.78A1.2,1.2,0,0,1,61.17,99H57.89a1.2,1.2,0,0,1-1.2-1.19V58.37a1.2,1.2,0,0,1,1.2-1.2h3.28a1.2,1.2,0,0,1,1.2,1.2V72.7c0,.3.35.3.47.12l11.59-15a1.35,1.35,0,0,1,1.31-.6H79a1.32,1.32,0,0,1,1,2.15L66.43,76.7c-.36.48-.54.89-.06,1.43L81.65,96.76A1.35,1.35,0,0,1,80.58,99H76.82a1.43,1.43,0,0,1-1.32-.6Z" transform="translate(-56.69 -56.7)"/><rect x="32.01" y="0.48" width="6.1" height="41.8" rx="1.19"/><path d="M123.82,99c-.65,0-.95-.18-1.25-1L110.81,68.4a.25.25,0,0,0-.48.12V97.78a1.2,1.2,0,0,1-1.2,1.19h-3a1.2,1.2,0,0,1-1.2-1.19V58.37a1.2,1.2,0,0,1,1.2-1.2h5c.66,0,1,.18,1.26,1l11.76,29.44a.25.25,0,0,0,.48-.12V58.37a1.2,1.2,0,0,1,1.19-1.2h3a1.19,1.19,0,0,1,1.19,1.2V97.78A1.19,1.19,0,0,1,128.78,99Z" transform="translate(-56.69 -56.7)"/><path d="M145.83,92.7a.57.57,0,0,0,.6.6h14.33A1.19,1.19,0,0,1,162,94.49v3.29A1.19,1.19,0,0,1,160.76,99H141.35a1.2,1.2,0,0,1-1.19-1.19V58.37a1.2,1.2,0,0,1,1.19-1.2h19.29a1.19,1.19,0,0,1,1.19,1.2v3.28a1.19,1.19,0,0,1-1.19,1.2H146.43a.56.56,0,0,0-.6.59V74.19a.57.57,0,0,0,.6.6H160a1.19,1.19,0,0,1,1.2,1.19v3.29a1.2,1.2,0,0,1-1.2,1.19H146.43a.57.57,0,0,0-.6.6Z" transform="translate(-56.69 -56.7)"/><path d="M380.81,67.34a5.48,5.48,0,0,1-1.13.11h-3.26V57.29h3.35a4.93,4.93,0,0,1,1.19.13,2.34,2.34,0,0,1,2,2.4A2.29,2.29,0,0,1,381.32,62v0a2.37,2.37,0,0,1,1.87,2.37A2.77,2.77,0,0,1,380.81,67.34Zm-1.24-5.86a1.49,1.49,0,0,0,1.7-1.5c0-.81-.54-1.33-1.57-1.33h-1.59v2.83Zm.14,1.26h-1.6v3.35h1.5c1.3,0,1.85-.64,1.85-1.71A1.61,1.61,0,0,0,379.71,62.74Z" transform="translate(-56.69 -56.7)"/><path d="M390.77,65.52a2.7,2.7,0,0,1-2.8,2.12c-2.06,0-3.21-1.46-3.21-3.72s1.25-3.67,3.18-3.67,3,1.34,3,3.45c0,.28,0,.52,0,.73h-4.6c.05,1.31.6,2,1.64,2a1.36,1.36,0,0,0,1.41-1.13Zm-1.36-2.19c0-1.19-.53-1.87-1.51-1.87s-1.52.76-1.55,1.87Z" transform="translate(-56.69 -56.7)"/><path d="M397.08,61.86a2,2,0,0,0-.78-.12,1.77,1.77,0,0,0-1.43.68,3.28,3.28,0,0,0-.55,2.17v2.86h-1.53V62.7c0-.66,0-1.59-.09-2.27h1.45c0,.38.06,1,.07,1.44h0a2.32,2.32,0,0,1,2.18-1.62,2.16,2.16,0,0,1,.65.1Z" transform="translate(-56.69 -56.7)"/><path d="M402.81,66.49h0a2,2,0,0,1-1.95,1.14c-1.57,0-2.4-1-2.4-2.6v-4.6H400v4.33c0,1,.36,1.59,1.24,1.59s1.54-.56,1.54-2V60.43h1.53v4.8c0,.69,0,1.52.07,2.22h-1.47C402.84,67.21,402.82,66.82,402.81,66.49Z" transform="translate(-56.69 -56.7)"/><path d="M410.58,58.54a2.2,2.2,0,0,0-1.08-.25.75.75,0,0,0-.73.36,2.5,2.5,0,0,0-.14,1.05v.73h2v1.18h-2v5.84H407.1V61.61h-1.4V60.43h1.4v-.92a2.65,2.65,0,0,1,.51-1.86,2.21,2.21,0,0,1,1.64-.59,3.67,3.67,0,0,1,1.71.42Z" transform="translate(-56.69 -56.7)"/><path d="M414.57,67.64c-2.13,0-2.86-1-3-2.21l1.56-.17a1.26,1.26,0,0,0,1.44,1.23c.89,0,1.32-.37,1.32-.94s-.5-.83-1.19-1l-.94-.25c-1.08-.29-2-.66-2-2s1-2,2.8-2,2.65.81,2.73,2l-1.48.17c-.09-.68-.43-1-1.29-1s-1.22.27-1.22.74.34.73,1.06.92l1,.25c1.27.33,2.16.82,2.16,2.08C417.52,66.88,416.5,67.64,414.57,67.64Z" transform="translate(-56.69 -56.7)"/><path d="M422.43,67.45H421l-2.53-7h1.66L421.3,64c.18.59.31,1.06.44,1.65h0c.1-.43.18-.82.31-1.21l1.29-4H425Z" transform="translate(-56.69 -56.7)"/><path d="M431.87,65.52a2.7,2.7,0,0,1-2.8,2.12c-2.07,0-3.21-1.46-3.21-3.72s1.25-3.67,3.18-3.67,3,1.34,3,3.45c0,.28,0,.52,0,.73h-4.61c.06,1.31.6,2,1.65,2a1.34,1.34,0,0,0,1.4-1.13Zm-1.36-2.19c0-1.19-.53-1.87-1.52-1.87s-1.51.76-1.54,1.87Z" transform="translate(-56.69 -56.7)"/><path d="M438.18,61.86a2,2,0,0,0-.79-.12,1.79,1.79,0,0,0-1.43.68,3.35,3.35,0,0,0-.54,2.17v2.86h-1.53V62.7c0-.66,0-1.59-.09-2.27h1.45c0,.38.06,1,.07,1.44h0a2.31,2.31,0,0,1,2.17-1.62,2.18,2.18,0,0,1,.66.1Z" transform="translate(-56.69 -56.7)"/><path d="M441.22,61.34a2.08,2.08,0,0,1,1.86-1.09c1.63,0,2.86,1.29,2.86,3.71s-1.28,3.68-2.86,3.68a2,2,0,0,1-1.88-1.12h0c0,.36,0,.68-.07.93h-1.49c0-.74.07-1.53.07-2.3V57.29h1.54v2.86c0,.42,0,1,0,1.19Zm1.56.13c-1,0-1.58.9-1.58,2.48s.6,2.47,1.6,2.47,1.56-.76,1.56-2.5C444.36,62.34,443.81,61.47,442.78,61.47Z" transform="translate(-56.69 -56.7)"/><path d="M453.72,67.57c-1.23,0-1.77-.3-2-1.23a2.45,2.45,0,0,1-2.19,1.3,2,2,0,0,1-2.2-2.06c0-1.09.67-1.75,2.14-2.15l1.52-.38c.49-.13.56-.25.56-.52V62.4c0-.6-.24-1-1.19-1s-1.26.43-1.26,1.13l-1.54-.13c0-1.24,1-2.15,2.8-2.15,2,0,2.72.86,2.72,2.14v3.12c0,.68.14.93.82,1Zm-2.2-3.78a1.27,1.27,0,0,1-.53.27l-1.15.36c-.57.2-1,.51-1,1.12a.87.87,0,0,0,1,.94,2,2,0,0,0,1.69-1.29Z" transform="translate(-56.69 -56.7)"/><path d="M456.93,61.39h0a2.17,2.17,0,0,1,2-1.14c1.54,0,2.33,1,2.33,2.64v4.56h-1.53V63.14c0-1-.33-1.6-1.26-1.6s-1.53.59-1.53,2v4h-1.53V62.66c0-.69,0-1.48-.07-2.23h1.47C456.9,60.73,456.91,61.07,456.93,61.39Z" transform="translate(-56.69 -56.7)"/><path d="M467.9,67.45c0-.28,0-.63-.07-.93h0a1.91,1.91,0,0,1-1.87,1.12c-1.52,0-2.91-1.19-2.91-3.74s1.28-3.65,2.92-3.65a2,2,0,0,1,1.82,1.09h0c0-.2,0-.73,0-1.14V57.29h1.53v7.85c0,.78,0,1.54.07,2.31Zm-1.67-1c1.06,0,1.55-1,1.55-2.49s-.54-2.46-1.58-2.46-1.6.72-1.6,2.49S465.24,66.42,466.23,66.42Z" transform="translate(-56.69 -56.7)"/><path d="M479.49,58.54a2.17,2.17,0,0,0-1.07-.25.74.74,0,0,0-.73.36,2.5,2.5,0,0,0-.14,1.05v.73h2v1.18h-2v5.84H476V61.61h-1.41V60.43H476v-.92a2.65,2.65,0,0,1,.51-1.86,2.18,2.18,0,0,1,1.63-.59,3.72,3.72,0,0,1,1.72.42Z" transform="translate(-56.69 -56.7)"/><path d="M485.36,66.49h0a2,2,0,0,1-1.94,1.14c-1.58,0-2.41-1-2.41-2.6v-4.6h1.53v4.33c0,1,.36,1.59,1.25,1.59s1.53-.56,1.53-2V60.43h1.53v4.8c0,.69,0,1.52.07,2.22h-1.47C485.39,67.21,485.38,66.82,485.36,66.49Zm-3.61-7.37V57.45h1.52v1.67Zm2.74,0V57.45H486v1.67Z" transform="translate(-56.69 -56.7)"/><path d="M493.45,61.86a2,2,0,0,0-.79-.12,1.77,1.77,0,0,0-1.43.68,3.28,3.28,0,0,0-.55,2.17v2.86h-1.53V62.7c0-.66,0-1.59-.08-2.27h1.44c0,.38.06,1,.07,1.44h0a2.32,2.32,0,0,1,2.18-1.62,2.29,2.29,0,0,1,.66.1Z" transform="translate(-56.69 -56.7)"/><path d="M503.65,67.45l-2.54-4.72-1,1.26v3.46h-1.7V57.29h1.7v4.34l3.29-4.34h2.12l-3.35,4.15,3.51,6Z" transform="translate(-56.69 -56.7)"/><path d="M507,59.05V57.36h1.57v1.69Zm0,8.4v-7h1.54v7Z" transform="translate(-56.69 -56.7)"/><path d="M512.36,61.39h0a2.19,2.19,0,0,1,2-1.14c1.55,0,2.34,1,2.34,2.64v4.56h-1.53V63.14c0-1-.33-1.6-1.26-1.6s-1.54.59-1.54,2v4H510.9V62.66c0-.69,0-1.48-.07-2.23h1.48C512.33,60.73,512.35,61.07,512.36,61.39Z" transform="translate(-56.69 -56.7)"/><path d="M524.48,65.52a2.7,2.7,0,0,1-2.8,2.12c-2.06,0-3.21-1.46-3.21-3.72s1.25-3.67,3.18-3.67,3,1.34,3,3.45c0,.28,0,.52,0,.73h-4.6c.05,1.31.6,2,1.64,2a1.36,1.36,0,0,0,1.41-1.13Zm-1.36-2.19c0-1.19-.53-1.87-1.51-1.87s-1.52.76-1.55,1.87Z" transform="translate(-56.69 -56.7)"/><path d="M529,67.64c-2.13,0-2.86-1-3-2.21l1.56-.17A1.26,1.26,0,0,0,529,66.49c.89,0,1.32-.37,1.32-.94s-.5-.83-1.19-1l-.94-.25c-1.08-.29-2-.66-2-2s1-2,2.8-2,2.65.81,2.73,2l-1.48.17c-.09-.68-.43-1-1.29-1s-1.22.27-1.22.74.34.73,1.06.92l1,.25c1.27.33,2.16.82,2.16,2.08C531.94,66.88,530.92,67.64,529,67.64Z" transform="translate(-56.69 -56.7)"/><path d="M533.81,59.05V57.36h1.58v1.69Zm0,8.4v-7h1.53v7Z" transform="translate(-56.69 -56.7)"/><path d="M540.41,67.64c-1.89,0-3.19-1.37-3.19-3.69s1.3-3.7,3.19-3.7,3.21,1.38,3.21,3.7S542.31,67.64,540.41,67.64Zm0-6.17c-1,0-1.62.83-1.62,2.48s.59,2.47,1.62,2.47S542,65.59,542,64,541.44,61.47,540.41,61.47Z" transform="translate(-56.69 -56.7)"/><path d="M545.47,57.29H547V67.45h-1.54Z" transform="translate(-56.69 -56.7)"/><path d="M552.06,67.64c-1.89,0-3.19-1.37-3.19-3.69s1.3-3.7,3.19-3.7,3.2,1.38,3.2,3.7S554,67.64,552.06,67.64Zm0-6.17c-1,0-1.62.83-1.62,2.48s.59,2.47,1.62,2.47,1.62-.83,1.62-2.47S553.09,61.47,552.06,61.47Z" transform="translate(-56.69 -56.7)"/><path d="M561.39,66.52h0a2,2,0,0,1-1.92,1.08c-1.44,0-2.8-1.19-2.8-3.67s1.36-3.68,2.86-3.68a1.93,1.93,0,0,1,1.87,1.12h0c0-.31,0-.66.07-.94h1.46c0,.81-.07,1.6-.07,2.31v4.63a3.6,3.6,0,0,1-.64,2.33,2.91,2.91,0,0,1-2.44.87c-1.63,0-2.66-.73-2.81-2.07l1.44-.16c.09.84.65,1.15,1.45,1.15a1.42,1.42,0,0,0,1.23-.53,2.51,2.51,0,0,0,.27-1.46C561.36,67.24,561.36,66.94,561.39,66.52Zm-1.63-.15c1.1,0,1.63-.92,1.63-2.47s-.62-2.43-1.56-2.43-1.62.76-1.62,2.45S558.78,66.37,559.76,66.37Z" transform="translate(-56.69 -56.7)"/><path d="M565.15,59.05V57.36h1.57v1.69Zm0,8.4v-7h1.53v7Z" transform="translate(-56.69 -56.7)"/><path d="M574.55,65.52a2.7,2.7,0,0,1-2.8,2.12c-2.06,0-3.21-1.46-3.21-3.72s1.25-3.67,3.18-3.67,3,1.34,3,3.45c0,.28,0,.52,0,.73h-4.6c0,1.31.6,2,1.64,2a1.34,1.34,0,0,0,1.4-1.13Zm-1.36-2.19c0-1.19-.53-1.87-1.51-1.87s-1.52.76-1.55,1.87Z" transform="translate(-56.69 -56.7)"/><path d="M381.6,83.15l-.56-2h-3.3l-.58,2h-1.74L378.61,73h1.62l3.2,10.16ZM379.93,77c-.18-.63-.39-1.35-.52-2h0c-.13.68-.33,1.4-.5,2l-.76,2.69h2.54Z" transform="translate(-56.69 -56.7)"/><path d="M387.27,83.34c-2.14,0-2.87-1-3-2.2l1.56-.18a1.26,1.26,0,0,0,1.45,1.23c.89,0,1.32-.37,1.32-.94s-.5-.83-1.19-1l-.95-.25c-1.07-.29-2-.66-2-2s1.05-2,2.81-2,2.65.81,2.73,2l-1.49.17c-.08-.68-.43-1-1.29-1s-1.21.27-1.21.74.34.73,1.06.92l1,.25c1.28.33,2.17.82,2.17,2.08C390.22,82.58,389.2,83.34,387.27,83.34Z" transform="translate(-56.69 -56.7)"/><path d="M394.62,83.34c-2.13,0-2.86-1-3-2.2l1.56-.18a1.26,1.26,0,0,0,1.44,1.23c.89,0,1.32-.37,1.32-.94s-.5-.83-1.19-1l-.94-.25c-1.07-.29-2-.66-2-2s1-2,2.8-2,2.65.81,2.74,2l-1.49.17c-.09-.68-.43-1-1.29-1s-1.22.27-1.22.74.35.73,1.06.92l1,.25c1.27.33,2.16.82,2.16,2.08C397.57,82.58,396.55,83.34,394.62,83.34Z" transform="translate(-56.69 -56.7)"/><path d="M402.21,83.34c-1.89,0-3.2-1.37-3.2-3.69s1.31-3.7,3.2-3.7,3.2,1.38,3.2,3.7S404.11,83.34,402.21,83.34Zm0-6.17c-1,0-1.62.83-1.62,2.48s.59,2.47,1.62,2.47,1.61-.83,1.61-2.47S403.24,77.17,402.21,77.17Z" transform="translate(-56.69 -56.7)"/><path d="M412.88,80.84a2.69,2.69,0,0,1-2.95,2.5c-1.93,0-3.15-1.46-3.15-3.75S408,76,410,76a2.59,2.59,0,0,1,2.8,2.28l-1.45.19A1.27,1.27,0,0,0,410,77.17c-1,0-1.64.86-1.64,2.46s.66,2.48,1.62,2.48,1.33-.52,1.43-1.42Z" transform="translate(-56.69 -56.7)"/><path d="M414.56,74.75V73.06h1.57v1.69Zm0,8.4v-7h1.54v7Z" transform="translate(-56.69 -56.7)"/><path d="M424.39,83.27c-1.23,0-1.78-.3-2-1.23a2.47,2.47,0,0,1-2.2,1.3,2,2,0,0,1-2.2-2.06c0-1.09.67-1.75,2.15-2.15l1.51-.38c.49-.13.56-.25.56-.52V78.1c0-.6-.24-1-1.18-1s-1.26.43-1.26,1.13l-1.55-.13c0-1.24,1-2.15,2.81-2.15,2,0,2.71.86,2.71,2.14v3.12c0,.68.15.93.82,1Zm-2.21-3.78a1.21,1.21,0,0,1-.53.27l-1.14.36c-.57.2-1,.51-1,1.12a.87.87,0,0,0,.95.94,2,2,0,0,0,1.69-1.29Z" transform="translate(-56.69 -56.7)"/><path d="M430.63,82.93a4.18,4.18,0,0,1-1.79.41c-1.89,0-2.15-1.36-2.15-2.42V77.31h-1.43V76.13h1.43V73.91l1.53-.66v2.88h1.85v1.18h-1.85v3.42c0,1.19.26,1.38.87,1.38a2.81,2.81,0,0,0,1.12-.24C430.34,82.22,430.48,82.57,430.63,82.93Z" transform="translate(-56.69 -56.7)"/><path d="M431.84,74.75V73.06h1.58v1.69Zm0,8.4v-7h1.53v7Z" transform="translate(-56.69 -56.7)"/><path d="M438.41,83.34c-1.89,0-3.19-1.37-3.19-3.69s1.3-3.7,3.19-3.7,3.21,1.38,3.21,3.7S440.31,83.34,438.41,83.34Zm0-6.17c-1,0-1.62.83-1.62,2.48s.59,2.47,1.62,2.47,1.62-.83,1.62-2.47S439.44,77.17,438.41,77.17Z" transform="translate(-56.69 -56.7)"/><path d="M444.91,77.09h0A2.17,2.17,0,0,1,447,76c1.54,0,2.33,1,2.33,2.64v4.56h-1.53V78.84c0-1-.33-1.6-1.26-1.6s-1.53.59-1.53,2v4h-1.53V78.36c0-.69,0-1.47-.07-2.23h1.47C444.88,76.43,444.89,76.77,444.91,77.09Z" transform="translate(-56.69 -56.7)"/><path d="M456.43,82.24c0,.2,0,.77,0,1.19V86h-1.53V78.46c0-.79,0-1.53-.07-2.33h1.49c0,.25.06.57.07.91h0A2.18,2.18,0,0,1,458.36,76c1.69,0,2.83,1.39,2.83,3.73s-1.17,3.66-2.8,3.66a2.19,2.19,0,0,1-1.94-1.1Zm1.6-5.07c-1,0-1.6.84-1.6,2.48s.6,2.47,1.61,2.47,1.56-.78,1.56-2.5S459,77.17,458,77.17Z" transform="translate(-56.69 -56.7)"/><path d="M467.32,77.56a2,2,0,0,0-.79-.12,1.77,1.77,0,0,0-1.43.68,3.28,3.28,0,0,0-.55,2.17v2.86H463V78.4c0-.66,0-1.59-.08-2.27h1.44c0,.38.06,1,.07,1.44h0A2.32,2.32,0,0,1,466.66,76a2.29,2.29,0,0,1,.66.1Z" transform="translate(-56.69 -56.7)"/><path d="M471.45,83.34c-1.89,0-3.19-1.37-3.19-3.69s1.3-3.7,3.19-3.7,3.21,1.38,3.21,3.7S473.36,83.34,471.45,83.34Zm0-6.17c-1,0-1.62.83-1.62,2.48s.59,2.47,1.62,2.47,1.62-.83,1.62-2.47S472.48,77.17,471.45,77.17Z" transform="translate(-56.69 -56.7)"/><path d="M480.48,74.24a2.17,2.17,0,0,0-1.07-.25.74.74,0,0,0-.73.36,2.32,2.32,0,0,0-.15,1.05v.73h2v1.18h-2v5.84H477V77.31h-1.4V76.13H477v-.92a2.65,2.65,0,0,1,.52-1.86,2.17,2.17,0,0,1,1.63-.59,3.75,3.75,0,0,1,1.72.42Z" transform="translate(-56.69 -56.7)"/><path d="M487.42,81.22a2.7,2.7,0,0,1-2.8,2.12c-2.06,0-3.21-1.46-3.21-3.72S482.66,76,484.59,76s3,1.34,3,3.45c0,.28,0,.52,0,.73H483c.05,1.31.6,2,1.64,2A1.34,1.34,0,0,0,486,81ZM486.06,79c0-1.19-.53-1.87-1.52-1.87S483,77.92,483,79Z" transform="translate(-56.69 -56.7)"/><path d="M491.9,83.34c-2.13,0-2.86-1-3-2.2L490.5,81a1.26,1.26,0,0,0,1.44,1.23c.89,0,1.32-.37,1.32-.94s-.5-.83-1.19-1l-.94-.25c-1.08-.29-2-.66-2-2s1-2,2.8-2,2.65.81,2.73,2l-1.48.17c-.09-.68-.43-1-1.29-1s-1.22.27-1.22.74.34.73,1.06.92l1,.25c1.27.33,2.16.82,2.16,2.08C494.85,82.58,493.83,83.34,491.9,83.34Z" transform="translate(-56.69 -56.7)"/><path d="M499.23,83.34c-2.14,0-2.87-1-3-2.2l1.56-.18a1.26,1.26,0,0,0,1.45,1.23c.89,0,1.32-.37,1.32-.94s-.5-.83-1.19-1l-.95-.25c-1.07-.29-2-.66-2-2s1.05-2,2.81-2,2.64.81,2.73,2l-1.49.17c-.08-.68-.43-1-1.29-1s-1.21.27-1.21.74.34.73,1.06.92l1,.25c1.28.33,2.16.82,2.16,2.08C502.17,82.58,501.16,83.34,499.23,83.34Z" transform="translate(-56.69 -56.7)"/><path d="M504,74.75V73.06h1.57v1.69Zm0,8.4v-7h1.53v7Z" transform="translate(-56.69 -56.7)"/><path d="M510.59,83.34c-1.89,0-3.19-1.37-3.19-3.69s1.3-3.7,3.19-3.7,3.2,1.38,3.2,3.7S512.49,83.34,510.59,83.34Zm0-6.17c-1,0-1.62.83-1.62,2.48s.59,2.47,1.62,2.47,1.62-.83,1.62-2.47S511.62,77.17,510.59,77.17Z" transform="translate(-56.69 -56.7)"/><path d="M517.08,77.09h0a2.19,2.19,0,0,1,2-1.14c1.54,0,2.33,1,2.33,2.64v4.56H520V78.84c0-1-.33-1.6-1.26-1.6s-1.53.59-1.53,2v4h-1.54V78.36c0-.69,0-1.47-.07-2.23H517C517.06,76.43,517.07,76.77,517.08,77.09Z" transform="translate(-56.69 -56.7)"/><path d="M525.11,77.09h0a2.19,2.19,0,0,1,2-1.14c1.55,0,2.34,1,2.34,2.64v4.56H528V78.84c0-1-.32-1.6-1.26-1.6s-1.53.59-1.53,2v4h-1.53V78.36c0-.69,0-1.47-.07-2.23h1.47C525.08,76.43,525.1,76.77,525.11,77.09Z" transform="translate(-56.69 -56.7)"/><path d="M537.2,81.22a2.69,2.69,0,0,1-2.8,2.12c-2.06,0-3.21-1.46-3.21-3.72S532.44,76,534.37,76s3,1.34,3,3.45c0,.28,0,.52,0,.73h-4.61c.06,1.31.6,2,1.64,2A1.36,1.36,0,0,0,535.82,81ZM535.85,79c0-1.19-.53-1.87-1.52-1.87s-1.52.76-1.55,1.87Z" transform="translate(-56.69 -56.7)"/><path d="M539.19,73h1.53V83.15h-1.53Z" transform="translate(-56.69 -56.7)"/><path d="M543,73h1.53V83.15H543Z" transform="translate(-56.69 -56.7)"/><path d="M552.39,81.22a2.7,2.7,0,0,1-2.81,2.12c-2.06,0-3.2-1.46-3.2-3.72S547.62,76,549.55,76s3,1.34,3,3.45c0,.28,0,.52,0,.73H548c.06,1.31.6,2,1.65,2A1.35,1.35,0,0,0,551,81ZM551,79c0-1.19-.53-1.87-1.52-1.87S548,77.92,548,79Z" transform="translate(-56.69 -56.7)"/><path d="M562.22,83.15c0-.28-.06-.63-.07-.93h0a1.93,1.93,0,0,1-1.88,1.12c-1.51,0-2.9-1.19-2.9-3.74S558.61,76,560.26,76A2,2,0,0,1,562.07,77h0c0-.2,0-.73,0-1.14V73h1.54v7.85c0,.78,0,1.54.07,2.31Zm-1.68-1c1.06,0,1.55-1,1.55-2.49s-.53-2.46-1.58-2.46-1.6.72-1.6,2.49S559.56,82.12,560.54,82.12Z" transform="translate(-56.69 -56.7)"/><path d="M571.5,81.22a2.69,2.69,0,0,1-2.8,2.12c-2.06,0-3.21-1.46-3.21-3.72S566.74,76,568.67,76s3,1.34,3,3.45c0,.28,0,.52,0,.73h-4.61c.06,1.31.6,2,1.64,2A1.36,1.36,0,0,0,570.12,81ZM570.15,79c0-1.19-.53-1.87-1.52-1.87s-1.52.76-1.55,1.87Z" transform="translate(-56.69 -56.7)"/><path d="M581.41,83.15l-2-3.09-.85.86v2.23H577V73h1.53v6l2.61-2.87h2L580.41,79l2.87,4.15Z" transform="translate(-56.69 -56.7)"/><path d="M584.53,74.75V73.06h1.57v1.69Zm0,8.4v-7h1.54v7Z" transform="translate(-56.69 -56.7)"/><path d="M589.83,77.09h0a2.19,2.19,0,0,1,2-1.14c1.54,0,2.33,1,2.33,2.64v4.56H592.7V78.84c0-1-.33-1.6-1.26-1.6s-1.53.59-1.53,2v4h-1.54V78.36c0-.69,0-1.47-.07-2.23h1.48C589.81,76.43,589.82,76.77,589.83,77.09Z" transform="translate(-56.69 -56.7)"/><path d="M601.93,81.22a2.7,2.7,0,0,1-2.81,2.12c-2.06,0-3.2-1.46-3.2-3.72S597.16,76,599.09,76s3,1.34,3,3.45c0,.28,0,.52,0,.73h-4.61c.06,1.31.6,2,1.65,2a1.35,1.35,0,0,0,1.4-1.13Zm-4.42-5.94-.35-.66,3.12-2,.6,1.26ZM600.57,79c0-1.19-.53-1.87-1.52-1.87s-1.52.76-1.54,1.87Z" transform="translate(-56.69 -56.7)"/><path d="M606.4,83.34c-2.13,0-2.86-1-3-2.2L605,81a1.26,1.26,0,0,0,1.45,1.23c.89,0,1.32-.37,1.32-.94s-.51-.83-1.19-1l-1-.25c-1.07-.29-2-.66-2-2s1-2,2.8-2,2.65.81,2.74,2l-1.49.17c-.09-.68-.43-1-1.29-1s-1.21.27-1.21.74.34.73,1.05.92l1,.25c1.28.33,2.16.82,2.16,2.08C609.35,82.58,608.34,83.34,606.4,83.34Z" transform="translate(-56.69 -56.7)"/><path d="M611.2,74.75V73.06h1.57v1.69Zm0,8.4v-7h1.53v7Z" transform="translate(-56.69 -56.7)"/><path d="M617.77,83.34c-1.89,0-3.2-1.37-3.2-3.69s1.31-3.7,3.2-3.7,3.2,1.38,3.2,3.7S619.67,83.34,617.77,83.34Zm0-6.17c-1,0-1.62.83-1.62,2.48s.59,2.47,1.62,2.47,1.61-.83,1.61-2.47S618.8,77.17,617.77,77.17Z" transform="translate(-56.69 -56.7)"/><path d="M622.8,73h1.53V83.15H622.8Z" transform="translate(-56.69 -56.7)"/><path d="M629.36,83.34c-1.89,0-3.19-1.37-3.19-3.69s1.3-3.7,3.19-3.7,3.2,1.38,3.2,3.7S631.26,83.34,629.36,83.34Zm0-6.17c-1,0-1.62.83-1.62,2.48s.59,2.47,1.62,2.47,1.62-.83,1.62-2.47S630.39,77.17,629.36,77.17Z" transform="translate(-56.69 -56.7)"/><path d="M638.66,82.22h0a2,2,0,0,1-1.92,1.08c-1.44,0-2.8-1.19-2.8-3.67S635.27,76,636.77,76a2,2,0,0,1,1.88,1.12h0c0-.31.05-.66.08-.94h1.45c0,.81-.07,1.6-.07,2.31v4.63a3.6,3.6,0,0,1-.64,2.33,2.9,2.9,0,0,1-2.43.87c-1.64,0-2.67-.73-2.82-2.07l1.44-.16c.09.85.65,1.15,1.45,1.15a1.42,1.42,0,0,0,1.23-.53,2.51,2.51,0,0,0,.27-1.46C638.63,82.94,638.63,82.64,638.66,82.22ZM637,82.07c1.1,0,1.63-.92,1.63-2.47s-.62-2.43-1.56-2.43-1.62.76-1.62,2.45S636.05,82.07,637,82.07Z" transform="translate(-56.69 -56.7)"/><path d="M642.39,74.75V73.06H644v1.69Zm0,8.4v-7H644v7Z" transform="translate(-56.69 -56.7)"/><path d="M651.77,81.22A2.7,2.7,0,0,1,649,83.34c-2.06,0-3.2-1.46-3.2-3.72S647,76,648.93,76s3,1.34,3,3.45c0,.28,0,.52,0,.73h-4.61c.06,1.31.6,2,1.65,2a1.35,1.35,0,0,0,1.4-1.13ZM650.41,79c0-1.19-.53-1.87-1.52-1.87s-1.52.76-1.54,1.87Z" transform="translate(-56.69 -56.7)"/><path d="M381.6,98.85l-.56-2h-3.3l-.58,2h-1.74l3.19-10.16h1.62l3.2,10.16Zm-1.67-6.12c-.18-.63-.39-1.35-.52-2h0c-.13.68-.33,1.4-.5,2l-.76,2.69h2.54Z" transform="translate(-56.69 -56.7)"/><path d="M387.27,99c-2.14,0-2.87-1-3-2.2l1.56-.18a1.26,1.26,0,0,0,1.45,1.23c.89,0,1.32-.37,1.32-.94s-.5-.83-1.19-1l-.95-.25c-1.07-.29-2-.66-2-2s1.05-2,2.81-2,2.65.81,2.73,2l-1.49.17c-.08-.68-.43-1-1.29-1s-1.21.27-1.21.74.34.73,1.06.92l1,.25c1.28.33,2.17.82,2.17,2.08C390.22,98.28,389.2,99,387.27,99Z" transform="translate(-56.69 -56.7)"/><path d="M394.62,99c-2.13,0-2.86-1-3-2.2l1.56-.18a1.26,1.26,0,0,0,1.44,1.23c.89,0,1.32-.37,1.32-.94s-.5-.83-1.19-1l-.94-.25c-1.07-.29-2-.66-2-2s1-2,2.8-2,2.65.81,2.74,2l-1.49.17c-.09-.68-.43-1-1.29-1s-1.22.27-1.22.74.35.73,1.06.92l1,.25c1.27.33,2.16.82,2.16,2.08C397.57,98.28,396.55,99,394.62,99Z" transform="translate(-56.69 -56.7)"/><path d="M402.21,99c-1.89,0-3.2-1.37-3.2-3.69s1.31-3.7,3.2-3.7,3.2,1.38,3.2,3.7S404.11,99,402.21,99Zm0-6.17c-1,0-1.62.83-1.62,2.48s.59,2.47,1.62,2.47,1.61-.83,1.61-2.47S403.24,92.87,402.21,92.87Z" transform="translate(-56.69 -56.7)"/><path d="M412.88,96.54a2.69,2.69,0,0,1-2.95,2.5c-1.93,0-3.15-1.46-3.15-3.75S408,91.65,410,91.65a2.59,2.59,0,0,1,2.8,2.28l-1.45.19A1.27,1.27,0,0,0,410,92.87c-1,0-1.64.86-1.64,2.46s.66,2.48,1.62,2.48,1.33-.52,1.43-1.42Z" transform="translate(-56.69 -56.7)"/><path d="M414.56,90.45V88.76h1.57v1.69Zm0,8.4v-7h1.54v7Z" transform="translate(-56.69 -56.7)"/><path d="M424.39,99c-1.23,0-1.78-.3-2-1.23a2.47,2.47,0,0,1-2.2,1.3A2,2,0,0,1,418,97c0-1.09.67-1.75,2.15-2.15l1.51-.38c.49-.13.56-.25.56-.52V93.8c0-.6-.24-1-1.18-1s-1.26.43-1.26,1.13l-1.55-.13c0-1.24,1-2.15,2.81-2.15,2,0,2.71.86,2.71,2.14v3.12c0,.68.15.93.82,1Zm-2.21-3.78a1.21,1.21,0,0,1-.53.27l-1.14.36c-.57.2-1,.52-1,1.12a.87.87,0,0,0,.95.94,2,2,0,0,0,1.69-1.29Z" transform="translate(-56.69 -56.7)"/><path d="M425.52,98.85v-1L429.35,93s-.7,0-1.36,0h-2.2v-1.2h5.58v1l-3.82,4.81s.76,0,1.37,0h2.58v1.2Z" transform="translate(-56.69 -56.7)"/><path d="M433.07,90.45V88.76h1.58v1.69Zm0,8.4v-7h1.53v7Z" transform="translate(-56.69 -56.7)"/><path d="M439.64,99c-1.89,0-3.19-1.37-3.19-3.69s1.3-3.7,3.19-3.7,3.21,1.38,3.21,3.7S441.54,99,439.64,99Zm0-6.17c-1,0-1.62.83-1.62,2.48s.59,2.47,1.62,2.47,1.62-.83,1.62-2.47S440.67,92.87,439.64,92.87Z" transform="translate(-56.69 -56.7)"/><path d="M446.14,92.79h0a2.17,2.17,0,0,1,2-1.14c1.54,0,2.33,1,2.33,2.64v4.56H449v-4.3c0-1-.33-1.61-1.26-1.61s-1.53.59-1.53,2v4h-1.53V94.06c0-.69,0-1.47-.07-2.23h1.47C446.11,92.13,446.12,92.47,446.14,92.79Z" transform="translate(-56.69 -56.7)"/><path d="M458.23,96.92A2.7,2.7,0,0,1,455.42,99c-2.06,0-3.2-1.46-3.2-3.72s1.24-3.67,3.18-3.67,3,1.34,3,3.45c0,.28,0,.52,0,.73h-4.61c.06,1.31.6,2,1.65,2a1.35,1.35,0,0,0,1.4-1.13Zm-1.36-2.19c0-1.19-.53-1.87-1.52-1.87s-1.51.76-1.54,1.87Z" transform="translate(-56.69 -56.7)"/><path d="M465.17,97.94c0,.2,0,.77,0,1.19v2.59h-1.53V94.16c0-.79,0-1.53-.08-2.33h1.49c0,.25.06.57.07.91h0a2.18,2.18,0,0,1,1.92-1.09c1.69,0,2.84,1.39,2.84,3.73S468.76,99,467.13,99a2.18,2.18,0,0,1-1.93-1.1Zm1.6-5.07c-1,0-1.6.85-1.6,2.48s.6,2.47,1.62,2.47,1.56-.78,1.56-2.5S467.73,92.87,466.77,92.87Z" transform="translate(-56.69 -56.7)"/><path d="M476.06,93.26a2,2,0,0,0-.79-.12,1.79,1.79,0,0,0-1.43.68A3.35,3.35,0,0,0,473.3,96v2.86h-1.53V94.1c0-.66,0-1.59-.09-2.27h1.45c0,.38.05,1,.07,1.44h0a2.32,2.32,0,0,1,2.17-1.62,1.88,1.88,0,0,1,.66.11Z" transform="translate(-56.69 -56.7)"/><path d="M480.19,99c-1.88,0-3.19-1.37-3.19-3.69s1.31-3.7,3.19-3.7,3.21,1.38,3.21,3.7S482.1,99,480.19,99Zm0-6.17c-1,0-1.61.83-1.61,2.48s.58,2.47,1.61,2.47,1.62-.83,1.62-2.47S481.23,92.87,480.19,92.87Z" transform="translate(-56.69 -56.7)"/><path d="M489.22,89.94a2.17,2.17,0,0,0-1.07-.25.74.74,0,0,0-.73.36,2.5,2.5,0,0,0-.14,1v.73h2V93h-2v5.84h-1.53V93h-1.41V91.83h1.41v-.92a2.65,2.65,0,0,1,.51-1.86,2.2,2.2,0,0,1,1.63-.59,3.72,3.72,0,0,1,1.72.42Z" transform="translate(-56.69 -56.7)"/><path d="M496.16,96.92a2.69,2.69,0,0,1-2.8,2.12c-2.06,0-3.21-1.46-3.21-3.72s1.25-3.67,3.18-3.67,3,1.34,3,3.45c0,.28,0,.52,0,.73h-4.61c.06,1.31.6,2,1.64,2a1.36,1.36,0,0,0,1.41-1.13Zm-1.35-2.19c0-1.19-.53-1.87-1.52-1.87s-1.52.76-1.55,1.87Z" transform="translate(-56.69 -56.7)"/><path d="M500.64,99c-2.13,0-2.86-1-3-2.2l1.56-.18a1.26,1.26,0,0,0,1.45,1.23c.88,0,1.31-.37,1.31-.94s-.5-.83-1.18-1l-.95-.25c-1.07-.29-2-.66-2-2s1-2,2.8-2,2.65.81,2.74,2l-1.49.17c-.09-.68-.43-1-1.29-1s-1.22.27-1.22.74.35.73,1.06.92l1,.25c1.27.33,2.16.82,2.16,2.08C503.59,98.28,502.58,99,500.64,99Z" transform="translate(-56.69 -56.7)"/><path d="M508,99c-2.13,0-2.86-1-3-2.2l1.56-.18A1.26,1.26,0,0,0,508,97.89c.89,0,1.32-.37,1.32-.94s-.5-.83-1.19-1l-.94-.25c-1.08-.29-2-.66-2-2s1-2,2.81-2,2.65.81,2.73,2l-1.49.17c-.08-.68-.42-1-1.28-1s-1.22.27-1.22.74.34.73,1.06.92l1,.25c1.27.33,2.16.82,2.16,2.08C510.92,98.28,509.9,99,508,99Z" transform="translate(-56.69 -56.7)"/><path d="M512.76,90.45V88.76h1.58v1.69Zm0,8.4v-7h1.53v7Z" transform="translate(-56.69 -56.7)"/><path d="M519.33,99c-1.89,0-3.19-1.37-3.19-3.69s1.3-3.7,3.19-3.7,3.21,1.38,3.21,3.7S521.24,99,519.33,99Zm0-6.17c-1,0-1.62.83-1.62,2.48s.59,2.47,1.62,2.47S521,97,521,95.35,520.36,92.87,519.33,92.87Z" transform="translate(-56.69 -56.7)"/><path d="M525.83,92.79h0a2.17,2.17,0,0,1,2-1.14c1.54,0,2.33,1,2.33,2.64v4.56h-1.53v-4.3c0-1-.33-1.61-1.26-1.61s-1.53.59-1.53,2v4h-1.53V94.06c0-.69,0-1.47-.07-2.23h1.47C525.8,92.13,525.81,92.47,525.83,92.79Z" transform="translate(-56.69 -56.7)"/><path d="M538.35,99c-1.23,0-1.77-.3-2-1.23a2.45,2.45,0,0,1-2.19,1.3A2,2,0,0,1,531.92,97c0-1.09.68-1.75,2.15-2.15l1.52-.38c.48-.13.56-.25.56-.52V93.8c0-.6-.25-1-1.19-1s-1.26.43-1.26,1.13l-1.55-.13c0-1.24,1-2.15,2.81-2.15,2,0,2.72.86,2.72,2.14v3.12c0,.68.14.93.81,1Zm-2.2-3.78a1.27,1.27,0,0,1-.53.27l-1.15.36c-.57.2-1,.52-1,1.12a.87.87,0,0,0,1,.94,2,2,0,0,0,1.69-1.29Z" transform="translate(-56.69 -56.7)"/><path d="M540.08,88.69h1.53V98.85h-1.53Z" transform="translate(-56.69 -56.7)"/><path d="M549.44,96.92A2.7,2.7,0,0,1,546.63,99c-2.06,0-3.2-1.46-3.2-3.72s1.24-3.67,3.18-3.67,3,1.34,3,3.45c0,.28,0,.52,0,.73H545c.06,1.31.6,2,1.65,2a1.35,1.35,0,0,0,1.4-1.13Zm-1.36-2.19c0-1.19-.53-1.87-1.52-1.87s-1.51.76-1.54,1.87Z" transform="translate(-56.69 -56.7)"/><path d="M559.34,98.85c0-.28-.06-.63-.07-.93h0A1.92,1.92,0,0,1,557.37,99c-1.52,0-2.91-1.19-2.91-3.74s1.28-3.65,2.92-3.65a2,2,0,0,1,1.82,1.09h0c0-.2,0-.73,0-1.14V88.69h1.53v7.85c0,.78,0,1.54.07,2.31Zm-1.67-1c1.06,0,1.54-1,1.54-2.49s-.53-2.46-1.57-2.46-1.6.72-1.6,2.49S556.68,97.82,557.67,97.82Z" transform="translate(-56.69 -56.7)"/><path d="M563.06,90.45V88.76h1.58v1.69Zm0,8.4v-7h1.53v7Z" transform="translate(-56.69 -56.7)"/><path d="M574.9,98.85l-2-3.09-.85.86v2.23H570.5V88.69H572v6l2.61-2.87h2L573.9,94.7l2.87,4.15Z" transform="translate(-56.69 -56.7)"/><path d="M578,90.45V88.76h1.58v1.69Zm0,8.4v-7h1.53v7Z" transform="translate(-56.69 -56.7)"/><path d="M583.32,92.79h0a2.19,2.19,0,0,1,2-1.14c1.55,0,2.34,1,2.34,2.64v4.56h-1.53v-4.3c0-1-.33-1.61-1.26-1.61s-1.53.59-1.53,2v4h-1.54V94.06c0-.69,0-1.47-.07-2.23h1.48C583.3,92.13,583.31,92.47,583.32,92.79Z" transform="translate(-56.69 -56.7)"/><path d="M595.42,96.92A2.7,2.7,0,0,1,592.61,99c-2.06,0-3.21-1.46-3.21-3.72s1.25-3.67,3.18-3.67,3,1.34,3,3.45c0,.28,0,.52,0,.73H591c.06,1.31.6,2,1.64,2A1.35,1.35,0,0,0,594,96.71Zm-1.36-2.19c0-1.19-.53-1.87-1.52-1.87s-1.52.76-1.55,1.87Z" transform="translate(-56.69 -56.7)"/><path d="M599.89,99c-2.13,0-2.86-1-3-2.2l1.56-.18a1.26,1.26,0,0,0,1.45,1.23c.88,0,1.31-.37,1.31-.94s-.5-.83-1.18-1l-1-.25c-1.07-.29-2-.66-2-2s1-2,2.8-2,2.65.81,2.74,2l-1.49.17c-.09-.68-.43-1-1.29-1s-1.22.27-1.22.74.35.73,1.06.92l1,.25c1.28.33,2.16.82,2.16,2.08C602.84,98.28,601.83,99,599.89,99Z" transform="translate(-56.69 -56.7)"/><path d="M604.69,90.45V88.76h1.57v1.69Zm0,8.4v-7h1.53v7Z" transform="translate(-56.69 -56.7)"/><path d="M611.26,99c-1.89,0-3.2-1.37-3.2-3.69s1.31-3.7,3.2-3.7,3.2,1.38,3.2,3.7S613.16,99,611.26,99Zm0-6.17c-1,0-1.62.83-1.62,2.48s.59,2.47,1.62,2.47,1.61-.83,1.61-2.47S612.29,92.87,611.26,92.87Z" transform="translate(-56.69 -56.7)"/><path d="M616.29,88.69h1.53V98.85h-1.53Z" transform="translate(-56.69 -56.7)"/><path d="M622.85,99c-1.89,0-3.2-1.37-3.2-3.69s1.31-3.7,3.2-3.7,3.2,1.38,3.2,3.7S624.75,99,622.85,99Zm0-6.17c-1,0-1.62.83-1.62,2.48s.59,2.47,1.62,2.47,1.61-.83,1.61-2.47S623.88,92.87,622.85,92.87Z" transform="translate(-56.69 -56.7)"/><path d="M632.15,97.92h0A2,2,0,0,1,630.2,99c-1.44,0-2.8-1.19-2.8-3.67s1.36-3.68,2.86-3.68a1.93,1.93,0,0,1,1.87,1.12h0c0-.31.05-.66.08-.94h1.45c0,.81-.07,1.6-.07,2.31v4.63a3.59,3.59,0,0,1-.64,2.33,2.9,2.9,0,0,1-2.43.87c-1.64,0-2.67-.73-2.82-2.07l1.44-.16c.09.85.65,1.15,1.45,1.15a1.42,1.42,0,0,0,1.23-.53,2.51,2.51,0,0,0,.27-1.46C632.12,98.64,632.12,98.34,632.15,97.92Zm-1.63-.15c1.1,0,1.63-.92,1.63-2.47s-.62-2.43-1.56-2.43-1.62.76-1.62,2.45S629.54,97.77,630.52,97.77Z" transform="translate(-56.69 -56.7)"/><path d="M635.88,90.45V88.76h1.58v1.69Zm0,8.4v-7h1.53v7Z" transform="translate(-56.69 -56.7)"/><path d="M645.69,99c-1.23,0-1.78-.3-2-1.23a2.45,2.45,0,0,1-2.19,1.3,2,2,0,0,1-2.2-2.06c0-1.09.67-1.75,2.15-2.15l1.51-.38c.49-.13.56-.25.56-.52V93.8c0-.6-.24-1-1.19-1s-1.26.43-1.26,1.13l-1.54-.13c0-1.24,1-2.15,2.8-2.15,2,0,2.72.86,2.72,2.14v3.12c0,.68.15.93.82,1Zm-2.21-3.78a1.21,1.21,0,0,1-.53.27l-1.14.36c-.57.2-1,.52-1,1.12a.88.88,0,0,0,1,.94,2,2,0,0,0,1.69-1.29Z" transform="translate(-56.69 -56.7)"/></svg>